<mxfile host="Electron" agent="Mozilla/5.0 (Windows NT 10.0; Win64; x64) AppleWebKit/537.36 (KHTML, like Gecko) draw.io/24.7.5 Chrome/126.0.6478.183 Electron/31.3.0 Safari/537.36" version="24.7.5">
  <diagram name="第 1 页" id="8RZDCIPQKIZlcDPWUaLR">
    <mxGraphModel dx="1050" dy="629" grid="1" gridSize="10" guides="1" tooltips="1" connect="1" arrows="1" fold="1" page="1" pageScale="1" pageWidth="1654" pageHeight="1169" math="0" shadow="0">
      <root>
        <mxCell id="0" />
        <mxCell id="1" parent="0" />
        <mxCell id="uIg--sVs7yTWVcA4Q5o--2" value="4" style="whiteSpace=wrap;html=1;aspect=fixed;fontSize=23;" vertex="1" parent="1">
          <mxGeometry x="180" y="300" width="80" height="80" as="geometry" />
        </mxCell>
        <mxCell id="uIg--sVs7yTWVcA4Q5o--5" value="3" style="whiteSpace=wrap;html=1;aspect=fixed;fontSize=23;" vertex="1" parent="1">
          <mxGeometry x="580" y="300" width="80" height="80" as="geometry" />
        </mxCell>
        <mxCell id="uIg--sVs7yTWVcA4Q5o--6" value="2" style="whiteSpace=wrap;html=1;aspect=fixed;fontSize=23;" vertex="1" parent="1">
          <mxGeometry x="500" y="300" width="80" height="80" as="geometry" />
        </mxCell>
        <mxCell id="uIg--sVs7yTWVcA4Q5o--7" value="3" style="whiteSpace=wrap;html=1;aspect=fixed;fontSize=23;" vertex="1" parent="1">
          <mxGeometry x="260" y="300" width="80" height="80" as="geometry" />
        </mxCell>
        <mxCell id="uIg--sVs7yTWVcA4Q5o--8" value="1" style="whiteSpace=wrap;html=1;aspect=fixed;fontSize=23;" vertex="1" parent="1">
          <mxGeometry x="340" y="300" width="80" height="80" as="geometry" />
        </mxCell>
        <mxCell id="uIg--sVs7yTWVcA4Q5o--9" value="2" style="whiteSpace=wrap;html=1;aspect=fixed;fontSize=23;" vertex="1" parent="1">
          <mxGeometry x="420" y="300" width="80" height="80" as="geometry" />
        </mxCell>
        <mxCell id="uIg--sVs7yTWVcA4Q5o--35" value="" style="group" vertex="1" connectable="0" parent="1">
          <mxGeometry x="680" y="150" width="40" height="120" as="geometry" />
        </mxCell>
        <mxCell id="uIg--sVs7yTWVcA4Q5o--32" value="" style="endArrow=classic;html=1;rounded=0;" edge="1" parent="uIg--sVs7yTWVcA4Q5o--35">
          <mxGeometry width="50" height="50" relative="1" as="geometry">
            <mxPoint x="20" y="40" as="sourcePoint" />
            <mxPoint x="19.5" y="120" as="targetPoint" />
          </mxGeometry>
        </mxCell>
        <mxCell id="uIg--sVs7yTWVcA4Q5o--34" value="end" style="text;html=1;align=center;verticalAlign=middle;resizable=0;points=[];autosize=1;strokeColor=none;fillColor=none;" vertex="1" parent="uIg--sVs7yTWVcA4Q5o--35">
          <mxGeometry width="40" height="30" as="geometry" />
        </mxCell>
        <mxCell id="uIg--sVs7yTWVcA4Q5o--37" value="" style="group" vertex="1" connectable="0" parent="1">
          <mxGeometry x="500" y="410" width="50" height="108" as="geometry" />
        </mxCell>
        <mxCell id="uIg--sVs7yTWVcA4Q5o--36" value="start" style="text;html=1;align=center;verticalAlign=middle;resizable=0;points=[];autosize=1;strokeColor=none;fillColor=none;" vertex="1" parent="uIg--sVs7yTWVcA4Q5o--37">
          <mxGeometry y="78" width="50" height="30" as="geometry" />
        </mxCell>
        <mxCell id="uIg--sVs7yTWVcA4Q5o--31" value="" style="endArrow=classic;html=1;rounded=0;" edge="1" parent="uIg--sVs7yTWVcA4Q5o--37">
          <mxGeometry width="50" height="50" relative="1" as="geometry">
            <mxPoint x="29.5" y="60" as="sourcePoint" />
            <mxPoint x="29.5" y="-10" as="targetPoint" />
          </mxGeometry>
        </mxCell>
      </root>
    </mxGraphModel>
  </diagram>
</mxfile>
